<svg xmlns="http://www.w3.org/2000/svg" width="256" height="256" viewBox="0 0 256 256">
  <defs>
    <clipPath id="ca">
      <path d="M 94.46875 162.1875 L 144.71875 162.1875 L 144.71875 202 L 94.46875 202 Z" />
    </clipPath>
    <clipPath id="cb">
      <path d="M 105 173 L 134 173 L 134 212.4375 L 105 212.4375 Z" />
    </clipPath>
  </defs>
  <rect width="256" height="256" rx="56" fill="#ff6b35" />
  <g transform="translate(128 128) scale(3.0) translate(-119.77 -187.50)" fill="#ffffff">
    <g clip-path="url(#ca)">
      <path d="M 119.773438 162.1875 C 105.824219 162.1875 94.46875 173.546875 94.46875 187.496094 L 94.46875 198.605469 C 94.46875 200.308594 95.851562 201.691406 97.554688 201.691406 C 99.257812 201.691406 100.640625 200.308594 100.640625 198.605469 L 100.640625 187.496094 C 100.640625 176.941406 109.21875 168.359375 119.773438 168.359375 C 130.328125 168.359375 138.910156 176.941406 138.910156 187.496094 L 138.910156 198.605469 C 138.910156 200.308594 140.289062 201.691406 141.996094 201.691406 C 143.699219 201.691406 145.082031 200.308594 145.082031 198.605469 L 145.082031 187.496094 C 145.082031 173.546875 133.722656 162.1875 119.773438 162.1875 Z" />
    </g>
    <g clip-path="url(#cb)">
      <path d="M 119.773438 173.296875 C 111.949219 173.296875 105.578125 179.667969 105.578125 187.421875 C 105.355469 196.628906 111.464844 205.023438 123.75 212.371094 C 124.242188 212.667969 124.785156 212.800781 125.328125 212.800781 C 126.378906 212.800781 127.402344 212.269531 127.984375 211.296875 C 128.859375 209.828125 128.378906 207.9375 126.921875 207.0625 C 116.6875 200.949219 111.589844 194.382812 111.761719 187.496094 C 111.761719 183.074219 115.367188 179.472656 119.785156 179.472656 C 124.207031 179.472656 127.808594 183.074219 127.808594 187.496094 C 127.808594 188.851562 126.699219 189.964844 125.339844 189.964844 C 123.984375 189.964844 122.871094 188.851562 122.871094 187.496094 C 122.871094 185.792969 121.488281 184.410156 119.785156 184.410156 C 118.082031 184.410156 116.699219 185.792969 116.699219 187.496094 C 116.699219 192.261719 120.578125 196.136719 125.339844 196.136719 C 130.105469 196.136719 133.984375 192.261719 133.984375 187.496094 C 133.984375 179.667969 127.613281 173.296875 119.785156 173.296875 Z" />
    </g>
  </g>
</svg>
